<svg version="1.1" id="Layer_1" xmlns="http://www.w3.org/2000/svg" xmlns:xlink="http://www.w3.org/1999/xlink" x="0px" y="0px"
	 width="100%" viewBox="0 0 500 500" enable-background="new 0 0 500 500" xml:space="preserve">
<path fill="#000000" opacity="1.000000" stroke="none" 
	d="
M328.000000,501.000000 
	C218.666687,501.000000 109.833382,501.000000 1.000058,501.000000 
	C1.000039,334.333405 1.000039,167.666794 1.000019,1.000148 
	C167.666565,1.000099 334.333130,1.000099 500.999756,1.000049 
	C500.999847,167.666519 500.999847,334.333038 500.999939,500.999786 
	C443.500000,501.000000 386.000000,501.000000 328.000000,501.000000 
M172.000000,147.000000 
	C172.000000,147.000000 171.996994,146.996826 172.502625,146.875046 
	C172.672440,146.586304 172.842255,146.297577 173.000000,146.000000 
	C173.000000,146.000000 173.008911,146.011932 173.514801,145.871918 
	C173.697159,145.583557 173.879517,145.295197 174.518066,144.939957 
	C174.518066,144.939957 174.958359,144.803131 175.492401,144.894394 
	C175.687332,144.606476 175.882248,144.318573 176.014221,144.014130 
	C176.014221,144.014130 176.020325,144.078934 176.539551,143.919342 
	C176.728821,143.621597 176.918076,143.323837 177.539307,142.957703 
	C177.539307,142.957703 177.950989,142.810104 178.650848,142.769608 
	C190.056030,135.706055 202.064102,129.930786 215.056137,126.475136 
	C221.949478,124.641640 228.989166,123.358200 236.857849,121.978813 
	C240.945892,121.649223 245.066605,120.820000 249.115784,121.084770 
	C260.747711,121.845375 272.350708,123.048553 284.389648,124.718506 
	C290.873230,126.792206 297.392395,128.761658 303.834045,130.958344 
	C327.042175,138.872665 345.744476,153.631165 361.103943,172.009354 
	C381.454865,196.360092 392.484039,224.870529 393.047119,257.798615 
	C392.842377,264.904724 392.743225,272.016083 392.392639,279.114990 
	C392.188110,283.256378 391.581299,287.377869 391.155518,291.508331 
	C391.827850,291.556580 392.500183,291.604828 393.172516,291.653076 
	C397.018341,278.670135 395.887421,265.267914 395.953827,251.073105 
	C394.984863,244.289139 394.322601,237.444382 392.992554,230.731964 
	C387.875580,204.908295 375.612976,182.720703 357.906647,163.457550 
	C346.679688,151.243408 333.583191,141.210922 318.647736,134.171082 
	C308.578430,129.424881 297.604126,126.598755 286.867676,122.449127 
	C286.644287,122.110191 286.354370,122.037804 285.342285,122.098831 
	C284.900726,122.137527 284.459198,122.176216 283.304565,121.823868 
	C268.234528,117.742836 252.895584,117.968323 237.520126,119.082901 
	C236.607300,119.149078 235.773346,120.303497 233.992508,121.008141 
	C230.243347,121.226761 226.334808,120.841705 222.776016,121.781326 
	C213.461166,124.240700 204.299072,127.278656 194.692596,129.677948 
	C194.561874,129.544724 194.431137,129.411484 194.748596,128.771683 
	C199.438278,124.173012 204.127945,119.574341 209.152618,114.326088 
	C212.163757,109.031731 215.072556,103.708939 214.839920,96.251404 
	C210.641434,101.507835 207.301117,105.689857 203.240204,109.978851 
	C194.534500,115.646065 185.704605,121.133545 177.161880,127.036621 
	C170.168228,131.869293 163.045807,136.804688 161.074631,146.489075 
	C161.074631,146.489075 160.994293,146.933472 160.359879,147.247284 
	C160.306305,148.163467 160.252731,149.079651 159.891983,150.656448 
	C157.280533,153.436539 154.669083,156.216644 151.980713,158.160873 
	C152.649017,152.068710 153.498062,145.988449 153.900558,139.878784 
	C154.071930,137.277328 153.872986,134.224564 150.135727,133.414383 
	C153.362473,127.947899 152.311310,122.587761 150.388657,117.249298 
	C149.750381,117.203369 149.112091,117.157448 148.473801,117.111519 
	C147.958481,123.373993 147.443161,129.636459 146.274506,136.274475 
	C143.936935,142.274399 141.737396,148.332672 139.232025,154.261688 
	C134.521301,165.409760 128.075836,176.059448 129.231049,189.268265 
	C128.393692,190.454208 127.556343,191.640152 126.832596,192.665192 
	C126.736038,180.413757 127.969742,168.444641 125.926025,156.546005 
	C125.395958,156.412735 124.865883,156.279480 124.335815,156.146210 
	C123.212395,159.403336 122.088966,162.660446 120.311104,166.312973 
	C115.405571,179.595795 114.511108,193.598297 113.068398,207.484940 
	C112.812302,209.950012 113.587875,212.522278 113.999901,215.908447 
	C114.321259,219.259796 114.642616,222.611160 114.406090,225.911316 
	C113.946632,225.604507 113.487183,225.297714 113.007355,224.994980 
	C113.007355,224.994980 113.013954,224.973511 112.996445,224.100708 
	C112.985954,212.009171 102.744347,192.030212 95.101257,189.483017 
	C95.101257,191.029404 94.960915,192.531815 95.124489,194.000366 
	C96.048042,202.291763 97.379150,210.552917 97.928329,218.866867 
	C98.561676,228.454910 100.418015,237.590805 105.114075,246.553116 
	C105.390549,246.754379 105.667023,246.955627 106.005966,247.588120 
	C106.005966,247.588120 106.169426,247.992050 106.275810,248.690536 
	C109.250259,251.653687 109.928513,255.210693 110.153770,259.383972 
	C110.718933,269.854706 111.199394,280.434479 113.119354,290.707886 
	C118.659111,320.350159 133.223465,345.231445 155.193146,366.685394 
	C155.907684,367.071899 156.748169,367.325256 157.318283,367.864471 
	C170.085114,379.939911 184.734802,388.992462 201.231812,394.981049 
	C208.233566,397.522797 215.390076,399.638245 222.476257,401.947449 
	C222.700851,401.374023 222.925446,400.800629 223.150040,400.227203 
	C221.661530,399.454803 220.238403,398.493378 218.670349,397.950897 
	C215.758652,396.943542 212.730179,396.276978 209.806503,395.300354 
	C189.949097,388.667419 172.362885,378.201477 156.767532,363.309906 
	C148.258850,355.024994 140.699265,346.073364 134.302277,335.941162 
	C120.661186,314.334991 113.980530,290.819916 113.031059,265.493805 
	C112.812775,259.671478 112.874954,253.838608 113.130325,247.379395 
	C114.749458,245.289841 116.368591,243.200272 118.624779,240.861237 
	C125.228096,234.580185 132.094666,228.549316 138.364853,221.951691 
	C145.429276,214.518402 150.052521,205.720612 149.859741,195.103058 
	C149.826706,193.283340 148.668213,191.484070 148.105606,189.890518 
	C143.547562,195.718719 139.802353,200.800400 135.747116,205.621307 
	C130.244781,212.162613 124.505081,218.504272 118.148438,224.971313 
	C118.092911,223.912552 118.037384,222.853806 118.697540,221.604553 
	C119.796768,218.036438 120.573158,214.326828 122.062241,210.929596 
	C125.189285,203.795517 126.928551,195.459930 136.712463,192.751938 
	C153.427353,186.430954 169.328995,178.933609 179.908218,163.511887 
	C179.387360,163.054642 179.264099,162.853531 179.138901,162.852310 
	C178.535034,162.846390 177.918213,162.825989 177.328293,162.933289 
	C166.149155,164.966705 156.144562,169.781021 146.599640,175.764069 
	C144.887360,176.837372 142.775284,177.272842 141.135376,177.372131 
	C143.362076,174.236740 145.588776,171.101334 148.141800,167.344635 
	C152.749252,164.836563 157.356689,162.328476 162.851669,159.965591 
	C167.276337,159.636841 171.696686,159.127563 176.126678,159.021896 
	C182.670639,158.865799 189.224579,158.871552 195.768600,159.035202 
	C205.148041,159.269775 213.377762,156.067215 221.683578,150.781769 
	C223.123611,148.956192 224.563660,147.130630 226.003693,145.305054 
	C225.643158,144.933044 225.282608,144.561050 224.922058,144.189041 
	C221.582596,145.444519 218.243118,146.699997 214.286041,148.012146 
	C213.877213,148.064896 213.468369,148.117645 212.120132,148.013901 
	C202.405090,148.071716 192.690048,148.129532 182.181656,148.396240 
	C177.821091,148.606384 173.460541,148.816544 169.641968,148.807983 
	C170.092636,148.447205 170.543320,148.086411 171.482239,147.795151 
	C171.801834,147.624527 171.973373,147.358459 172.000000,147.000000 
M324.780518,375.273743 
	C322.894928,374.418671 321.009338,373.563599 319.123749,372.708527 
	C318.905945,373.136993 318.688141,373.565460 318.470367,373.993896 
	C321.561279,375.951935 324.652161,377.909943 327.743073,379.867950 
	C328.187622,379.601410 328.632172,379.334839 329.076721,379.068298 
	C328.582001,375.501923 328.087280,371.935547 327.592560,368.369171 
	C327.101593,368.378387 326.610657,368.387573 326.119690,368.396790 
	C326.119690,370.562531 326.119690,372.728302 325.717041,375.292297 
	C325.587067,375.429199 325.457123,375.566101 324.780518,375.273743 
M274.939728,332.967224 
	C282.528656,332.967224 290.117615,332.967224 297.706543,332.967224 
	C297.694366,332.364349 297.682220,331.761505 297.670044,331.158630 
	C289.783813,331.158630 281.897552,331.158630 273.082336,331.014984 
	C260.779877,331.014984 248.477432,331.014984 236.174973,331.014984 
	C236.176270,331.623840 236.177567,332.232697 236.178864,332.841553 
	C248.789673,332.841553 261.400482,332.841553 274.939728,332.967224 
M221.568207,208.056320 
	C218.498138,208.056320 215.428070,208.056320 210.632797,208.056320 
	C217.660721,213.992569 217.023575,220.671478 217.013733,227.235458 
	C216.979034,250.387177 217.059784,273.539215 216.967697,296.690613 
	C216.937759,304.216766 218.614136,312.096527 212.518082,318.650757 
	C217.501404,318.650757 221.727341,318.650757 224.655746,318.650757 
	C223.739868,313.736298 222.105789,308.919525 222.063705,304.088867 
	C221.824341,276.608795 221.965042,249.125412 221.976379,221.643158 
	C221.976959,220.261017 221.976471,218.878876 221.976471,217.496735 
	C222.389618,217.311172 222.802765,217.125595 223.215897,216.940018 
	C223.744965,217.757736 224.325180,218.547150 224.795502,219.397324 
	C233.240128,234.662415 241.672592,249.934250 250.105362,265.205933 
	C259.415131,282.065887 268.762817,298.905151 277.993469,315.808319 
	C279.629913,318.804993 281.729340,319.487152 284.963715,318.454529 
	C284.963715,291.289520 284.782623,264.318390 285.059418,237.351990 
	C285.159821,227.568985 282.454254,217.207748 290.000397,208.510254 
	C284.660828,208.510254 279.988586,208.510254 273.712738,208.510254 
	C280.727356,213.325241 280.075500,219.395874 280.064514,225.355499 
	C280.021790,248.506866 280.064026,271.658386 280.053436,294.809845 
	C280.052887,295.984772 279.854584,297.159607 279.655640,299.360657 
	C276.609741,293.994598 274.093048,289.648254 271.658234,285.256531 
	C259.630188,263.561371 247.525040,241.907700 235.710999,220.096451 
	C233.834335,216.631744 230.843597,212.675934 235.334290,208.057373 
	C230.496140,208.057373 226.514709,208.057373 221.568207,208.056320 
M224.502991,188.988495 
	C219.075363,188.988495 213.647720,188.988495 208.220093,188.988495 
	C208.247711,189.419876 208.275330,189.851273 208.302948,190.282654 
	C236.798309,190.282654 265.293671,190.282654 293.789001,190.282654 
	C293.786987,189.851303 293.784973,189.419952 293.782928,188.988602 
	C271.022675,188.988602 248.262390,188.988602 224.502991,188.988495 
M272.732788,390.031860 
	C271.216492,390.527954 269.700226,391.024078 268.230225,391.505066 
	C268.498169,393.930878 268.586151,396.192413 269.063690,398.368469 
	C269.270660,399.311523 270.370361,400.854980 270.910217,400.792480 
	C273.409607,400.503082 276.373993,400.368408 278.118439,398.914429 
	C279.113373,398.085175 278.595459,394.612366 277.794189,392.743408 
	C277.245972,391.464600 275.034515,390.898865 272.732788,390.031860 
M245.197769,398.309845 
	C244.569290,398.137268 243.599686,398.158539 243.372147,397.758118 
	C242.452179,396.139038 241.760757,394.390106 240.397797,391.401672 
	C238.927322,395.028229 238.124252,397.008789 237.116089,399.495148 
	C235.811813,396.827362 234.816101,394.790710 233.820404,392.754089 
	C233.293106,393.004150 232.765793,393.254181 232.238480,393.504242 
	C233.579483,396.781342 234.920471,400.058441 236.261459,403.335510 
	C236.757553,403.254730 237.253632,403.173950 237.749725,403.093201 
	C238.728760,401.209778 239.707794,399.326355 240.867859,397.094696 
	C241.992340,399.532654 242.986923,401.688965 244.661545,405.319641 
	C246.512360,400.516724 247.835449,397.083282 249.158539,393.649872 
	C248.607056,393.442474 248.055573,393.235107 247.504089,393.027740 
	C246.900040,394.615784 246.295975,396.203857 245.197769,398.309845 
M388.896271,304.617371 
	C387.982483,304.543365 386.781342,304.817535 386.201508,304.338928 
	C382.389191,301.192017 380.776550,301.419861 378.722382,305.767761 
	C378.181061,306.913544 377.914612,308.189178 377.302765,310.083862 
	C380.437622,311.069153 383.586487,312.058838 386.735382,313.048523 
	C386.735382,312.885406 386.735382,312.722260 386.735382,312.274078 
	C385.917755,311.638092 384.958496,310.891876 383.140411,309.477661 
	C385.421997,308.453064 387.032166,307.658417 388.696625,307.001343 
	C390.608978,306.246460 390.641937,306.256714 388.896271,304.617371 
M364.507233,330.990723 
	C362.297668,334.918884 363.281311,336.153015 371.799255,339.153168 
	C366.755035,335.758484 376.403595,330.247772 368.579468,326.970398 
	C367.602234,327.881409 366.264587,329.128357 364.507233,330.990723 
M363.584747,342.101868 
	C361.215729,340.003845 358.354675,339.222748 356.158264,341.629425 
	C354.574066,343.365295 353.288879,346.164581 353.369507,348.436432 
	C353.479431,351.534729 358.048218,353.462280 361.201752,351.734650 
	C364.669403,349.834808 366.231781,346.688660 363.584747,342.101868 
M311.593750,379.104309 
	C312.404297,378.433929 313.214844,377.763550 314.025360,377.093140 
	C313.755554,376.729462 313.485718,376.365753 313.215912,376.002045 
	C310.830780,377.189941 308.445679,378.377838 305.853516,379.668884 
	C307.527100,382.940948 309.064209,385.946136 310.722870,389.188965 
	C313.395294,387.776703 315.739838,386.537689 318.084381,385.298676 
	C317.906097,384.852631 317.727783,384.406616 317.549469,383.960571 
	C315.478577,384.588135 313.407684,385.215698 311.336823,385.843231 
	C311.167633,385.535889 310.998474,385.228577 310.829315,384.921234 
	C312.491852,383.576691 314.154388,382.232147 315.816925,380.887604 
	C315.652344,380.595215 315.487793,380.302826 315.323212,380.010437 
	C313.341949,380.620972 311.360687,381.231537 309.379425,381.842072 
	C309.259064,381.602203 309.138733,381.362335 309.018402,381.122498 
	C309.676514,380.579987 310.334595,380.037476 311.593750,379.104309 
M292.577759,385.185730 
	C292.750122,387.200775 292.519318,389.367950 293.206329,391.188843 
	C293.917053,393.072571 294.630646,396.261780 297.862396,394.619507 
	C300.639709,393.208130 304.670624,392.439667 303.238159,387.545074 
	C301.872498,382.878784 299.965393,382.316162 292.577759,385.185730 
M343.513397,368.913727 
	C342.581940,368.531830 341.498413,367.654877 340.754486,367.883453 
	C339.621857,368.231354 338.724457,369.345001 337.727173,370.133484 
	C337.425934,369.802582 337.124695,369.471649 336.823456,369.140717 
	C338.105713,367.587738 339.387970,366.034729 340.670197,364.481720 
	C340.510132,364.237488 340.350067,363.993225 340.189972,363.748993 
	C338.455750,364.712860 336.721497,365.676727 334.987274,366.640594 
	C334.587280,366.191101 334.187317,365.741638 333.787323,365.292175 
	C335.936279,364.214813 338.085266,363.137482 340.234222,362.060150 
	C339.478607,361.235504 338.722961,360.410858 337.967346,359.586212 
	C335.630127,361.447693 333.292908,363.309204 330.913727,365.204102 
	C333.413971,368.167358 335.579254,370.733612 337.687927,373.232758 
	C339.791870,371.702179 341.374969,370.550476 343.513397,368.913727 
M260.876862,398.665619 
	C261.581055,398.133850 262.285217,397.602081 264.012909,396.297424 
	C260.686554,396.297424 258.620728,396.297424 256.554871,396.297424 
	C257.373352,394.931366 258.402557,394.370728 259.499817,394.027954 
	C260.567749,393.694336 261.705353,393.583862 262.812378,393.375397 
	C254.651657,390.987640 253.988785,391.890472 255.502411,403.138275 
	C258.186035,402.962891 260.882538,402.786682 263.579041,402.610474 
	C263.553650,402.163849 263.528290,401.717194 263.502899,401.270569 
	C262.368378,401.183624 261.229218,401.134918 260.100708,400.998322 
	C259.095337,400.876617 258.101685,400.657562 257.102875,400.481506 
	C257.108124,400.185455 257.113373,399.889374 257.118652,399.593323 
	C258.127930,399.388550 259.137207,399.183807 260.876862,398.665619 
M372.583740,318.001099 
	C370.546539,322.668732 371.140228,323.347900 380.275848,326.530121 
	C381.484009,324.252411 382.708374,321.944183 383.932770,319.635925 
	C383.549744,319.408295 383.166748,319.180634 382.783752,318.952972 
	C381.399170,320.534637 380.014587,322.116272 378.630005,323.697937 
	C378.350708,323.530273 378.071411,323.362579 377.792114,323.194916 
	C378.440796,321.230682 379.089478,319.266418 379.738159,317.302185 
	C379.013947,316.684021 378.289703,316.065887 377.565491,315.447754 
	C376.862335,317.522217 376.159149,319.596710 375.455994,321.671173 
	C375.048615,321.265961 374.641205,320.860718 374.233826,320.455505 
	C374.463440,319.229828 374.693085,318.004181 374.922699,316.778503 
	C374.276123,316.980286 373.629547,317.182068 372.583740,318.001099 
M342.367645,356.646729 
	C344.838470,358.966736 347.309265,361.286743 349.859985,363.681793 
	C351.323914,362.144287 352.797974,360.596161 354.272034,359.048035 
	C353.938354,358.701324 353.604675,358.354584 353.270996,358.007874 
	C351.958801,358.923035 350.646606,359.838196 349.887817,360.367371 
	C347.207581,358.777466 344.915161,357.417664 342.367645,356.646729 
M213.934402,331.007202 
	C213.015259,331.261108 212.096115,331.515015 211.176987,331.768951 
	C211.237930,331.969330 211.298874,332.169739 211.359833,332.370117 
	C216.211945,332.370117 221.064056,332.370117 225.916168,332.370117 
	C225.911163,331.909424 225.906174,331.448730 225.901184,330.988037 
	C222.221283,330.988037 218.541382,330.988037 213.934402,331.007202 
z"/>
<path fill="#8857EE" opacity="1.000000" stroke="none" 
	d="
M222.050751,208.056854 
	C226.514709,208.057373 230.496140,208.057373 235.334290,208.057373 
	C230.843597,212.675934 233.834335,216.631744 235.710999,220.096451 
	C247.525040,241.907700 259.630188,263.561371 271.658234,285.256531 
	C274.093048,289.648254 276.609741,293.994598 279.655640,299.360657 
	C279.854584,297.159607 280.052887,295.984772 280.053436,294.809845 
	C280.064026,271.658386 280.021790,248.506866 280.064514,225.355499 
	C280.075500,219.395874 280.727356,213.325241 273.712738,208.510254 
	C279.988586,208.510254 284.660828,208.510254 290.000397,208.510254 
	C282.454254,217.207748 285.159821,227.568985 285.059418,237.351990 
	C284.782623,264.318390 284.963715,291.289520 284.963715,318.454529 
	C281.729340,319.487152 279.629913,318.804993 277.993469,315.808319 
	C268.762817,298.905151 259.415131,282.065887 250.105362,265.205933 
	C241.672592,249.934250 233.240128,234.662415 224.795502,219.397324 
	C224.325180,218.547150 223.744965,217.757736 223.215897,216.940018 
	C222.802765,217.125595 222.389618,217.311172 221.976471,217.496735 
	C221.976471,218.878876 221.976959,220.261017 221.976379,221.643158 
	C221.965042,249.125412 221.824341,276.608795 222.063705,304.088867 
	C222.105789,308.919525 223.739868,313.736298 224.655746,318.650757 
	C221.727341,318.650757 217.501404,318.650757 212.518082,318.650757 
	C218.614136,312.096527 216.937759,304.216766 216.967697,296.690613 
	C217.059784,273.539215 216.979034,250.387177 217.013733,227.235458 
	C217.023575,220.671478 217.660721,213.992569 210.632797,208.056320 
	C215.428070,208.056320 218.498138,208.056320 222.050751,208.056854 
z"/>
<path fill="#775AD8" opacity="1.000000" stroke="none" 
	d="
M393.146820,256.968475 
	C392.484039,224.870529 381.454865,196.360092 361.103943,172.009354 
	C345.744476,153.631165 327.042175,138.872665 303.834045,130.958344 
	C297.392395,128.761658 290.873230,126.792206 284.189514,124.087807 
	C283.998810,123.043045 284.008240,122.628975 284.017639,122.214905 
	C284.459198,122.176216 284.900726,122.137527 285.698853,122.338104 
	C286.381836,122.689484 286.708221,122.801598 287.034637,122.913712 
	C297.604126,126.598755 308.578430,129.424881 318.647736,134.171082 
	C333.583191,141.210922 346.679688,151.243408 357.906647,163.457550 
	C375.612976,182.720703 387.875580,204.908295 392.992554,230.731964 
	C394.322601,237.444382 394.984863,244.289139 395.703430,251.356155 
	C394.980743,251.897354 394.196167,252.065216 394.090790,252.429489 
	C393.662811,253.909714 393.443237,255.450211 393.146820,256.968475 
z"/>
<path fill="#7C5CDA" opacity="1.000000" stroke="none" 
	d="
M112.808067,248.010620 
	C112.874954,253.838608 112.812775,259.671478 113.031059,265.493805 
	C113.980530,290.819916 120.661186,314.334991 134.302277,335.941162 
	C140.699265,346.073364 148.258850,355.024994 156.750122,363.877136 
	C156.107651,364.990234 155.482574,365.536102 154.857498,366.081940 
	C133.223465,345.231445 118.659111,320.350159 113.119354,290.707886 
	C111.199394,280.434479 110.718933,269.854706 110.153770,259.383972 
	C109.928513,255.210693 109.250259,251.653687 106.558365,248.344482 
	C107.512360,248.004837 108.183800,248.011230 108.969887,248.265625 
	C109.690971,248.336884 110.297417,248.160141 111.221252,247.986145 
	C111.961784,247.996140 112.384926,248.003372 112.808067,248.010620 
z"/>
<path fill="#8060DC" opacity="1.000000" stroke="none" 
	d="
M118.867188,224.931549 
	C124.505081,218.504272 130.244781,212.162613 135.747116,205.621307 
	C139.802353,200.800400 143.547562,195.718719 148.105606,189.890518 
	C148.668213,191.484070 149.826706,193.283340 149.859741,195.103058 
	C150.052521,205.720612 145.429276,214.518402 138.364853,221.951691 
	C132.094666,228.549316 125.228096,234.580185 118.244827,240.678680 
	C117.531807,239.980026 117.198746,239.463898 117.062164,238.556976 
	C117.169273,237.752640 117.079910,237.339127 116.996628,236.957977 
	C117.002708,236.990326 116.936874,236.991257 117.162285,237.332504 
	C123.200783,232.340164 129.360352,227.330460 134.731888,221.584122 
	C140.378464,215.543564 145.263763,208.794296 146.339996,199.954514 
	C146.661392,199.409393 146.715103,198.970184 146.768814,198.530991 
	C146.290649,198.782303 145.812500,199.033615 145.072433,199.504639 
	C136.885086,208.496826 128.959641,217.269272 120.764748,225.899902 
	C119.952599,225.482590 119.409889,225.207077 118.867188,224.931549 
z"/>
<path fill="#7F57E7" opacity="1.000000" stroke="none" 
	d="
M135.985565,192.846970 
	C126.928551,195.459930 125.189285,203.795517 122.062241,210.929596 
	C120.573158,214.326828 119.796768,218.036438 118.343773,221.329102 
	C117.662613,218.747665 117.335220,216.441666 117.346649,213.940460 
	C117.957291,212.481628 118.206108,211.212555 118.504623,209.955292 
	C120.396774,201.986374 122.299911,194.020035 124.375771,185.676147 
	C124.552116,178.334946 124.552116,171.370453 124.552116,163.267532 
	C123.758560,164.881729 123.480850,165.446655 123.121040,166.347977 
	C122.733162,167.473099 122.427376,168.261795 121.895538,168.793091 
	C121.434830,167.662964 121.200188,166.790268 120.965546,165.917572 
	C122.088966,162.660446 123.212395,159.403336 124.335815,156.146210 
	C124.865883,156.279480 125.395958,156.412735 125.926025,156.546005 
	C127.969742,168.444641 126.736038,180.413757 126.832596,192.665192 
	C127.556343,191.640152 128.393692,190.454208 129.802277,188.960831 
	C131.295624,186.744537 132.217758,184.835678 133.450623,182.810181 
	C135.123901,180.777588 136.486435,178.861633 138.150299,177.013336 
	C138.979828,177.386139 139.507996,177.691299 139.862671,178.272461 
	C139.808914,180.386063 139.928619,182.223663 140.034851,184.035370 
	C140.021378,184.009491 140.078308,184.022125 139.871338,184.163544 
	C139.448898,184.558670 139.233444,184.812378 139.012512,185.035675 
	C139.007019,185.005264 139.066223,185.022995 138.869263,185.123840 
	C138.421341,185.384171 138.198914,185.576645 137.654358,185.986420 
	C136.859207,187.133118 136.414719,188.095444 136.006012,189.052002 
	C136.041779,189.046234 136.071609,188.980179 135.871979,188.635193 
	C135.133865,188.820663 134.595398,189.351105 134.231735,190.125458 
	C134.932877,191.195236 135.459229,192.021103 135.985565,192.846970 
z"/>
<path fill="#795ADB" opacity="1.000000" stroke="none" 
	d="
M195.076096,130.085983 
	C204.299072,127.278656 213.461166,124.240700 222.776016,121.781326 
	C226.334808,120.841705 230.243347,121.226761 234.638901,121.107635 
	C235.538025,121.384155 235.763855,121.590591 235.962784,121.826447 
	C228.989166,123.358200 221.949478,124.641640 215.056137,126.475136 
	C202.064102,129.930786 190.056030,135.706055 178.337402,142.447845 
	C177.306641,140.483566 182.276825,137.568542 177.020294,136.655853 
	C187.667023,129.948257 198.440033,123.916641 206.439514,114.104156 
	C207.397522,114.487259 208.107574,114.731468 208.817627,114.975670 
	C204.127945,119.574341 199.438278,124.173012 194.250793,129.203873 
	C192.917023,130.189774 192.081070,130.743484 191.245102,131.297195 
	C191.421890,131.578796 191.598694,131.860397 191.775482,132.141998 
	C192.875687,131.456650 193.975891,130.771317 195.076096,130.085983 
z"/>
<path fill="#8060DC" opacity="1.000000" stroke="none" 
	d="
M136.349014,192.799454 
	C135.459229,192.021103 134.932877,191.195236 134.547668,190.161011 
	C135.149750,189.628510 135.610672,189.304337 136.071609,188.980179 
	C136.071609,188.980179 136.041779,189.046234 136.390717,189.011017 
	C149.861588,184.737823 161.988525,178.786194 171.923279,168.496155 
	C172.240601,167.943817 172.335220,167.571045 172.429840,167.198257 
	C171.915970,167.424957 171.402115,167.651657 170.502243,167.901733 
	C158.972794,171.215332 149.369736,177.375870 140.048325,184.061249 
	C139.928619,182.223663 139.808914,180.386063 140.065369,178.273834 
	C140.441544,177.999176 140.847794,178.002808 140.847794,178.002808 
	C142.775284,177.272842 144.887360,176.837372 146.599640,175.764069 
	C156.144562,169.781021 166.149155,164.966705 177.328293,162.933289 
	C177.918213,162.825989 178.535034,162.846390 179.138901,162.852310 
	C179.264099,162.853531 179.387360,163.054642 179.908218,163.511887 
	C169.328995,178.933609 153.427353,186.430954 136.349014,192.799454 
z"/>
<path fill="#7755D8" opacity="1.000000" stroke="none" 
	d="
M108.855255,248.017639 
	C108.183800,248.011230 107.512360,248.004837 106.505173,247.995239 
	C106.169426,247.992050 106.005966,247.588120 105.867615,247.167175 
	C105.572723,246.476715 105.378357,246.237961 105.146156,246.030014 
	C100.418015,237.590805 98.561676,228.454910 97.928329,218.866867 
	C97.379150,210.552917 96.048042,202.291763 95.124489,194.000366 
	C94.960915,192.531815 95.101257,191.029404 95.101257,189.483017 
	C102.744347,192.030212 112.985954,212.009171 112.795509,224.828827 
	C112.108528,227.392090 111.622490,229.227234 111.063477,230.618744 
	C110.857506,218.055756 107.099358,207.238846 99.140846,197.175018 
	C99.457733,203.190659 99.635658,208.537216 100.055359,213.864746 
	C100.350395,217.609940 100.535233,221.452652 101.542015,225.034622 
	C103.716103,232.769745 106.387383,240.365097 108.855255,248.017639 
z"/>
<path fill="#6C54CF" opacity="1.000000" stroke="none" 
	d="
M155.025330,366.383667 
	C155.482574,365.536102 156.107651,364.990234 156.896637,364.175598 
	C172.362885,378.201477 189.949097,388.667419 209.806503,395.300354 
	C212.730179,396.276978 215.758652,396.943542 218.670349,397.950897 
	C220.238403,398.493378 221.661530,399.454803 223.150040,400.227203 
	C222.925446,400.800629 222.700851,401.374023 222.476257,401.947449 
	C215.390076,399.638245 208.233566,397.522797 201.231812,394.981049 
	C184.734802,388.992462 170.085114,379.939911 157.318283,367.864471 
	C156.748169,367.325256 155.907684,367.071899 155.025330,366.383667 
z"/>
<path fill="#7C50F0" opacity="1.000000" stroke="none" 
	d="
M176.871445,136.974930 
	C182.276825,137.568542 177.306641,140.483566 177.987473,142.468094 
	C177.950989,142.810104 177.539307,142.957703 177.104996,143.125931 
	C176.453903,143.555756 176.237106,143.817337 176.020325,144.078934 
	C176.020325,144.078934 176.014221,144.014130 175.835938,144.114624 
	C175.393600,144.374313 175.160507,144.570312 174.958359,144.803131 
	C174.958359,144.803131 174.518066,144.939957 174.075836,145.097260 
	C173.365829,145.457901 173.157593,145.710342 173.008911,146.011932 
	C173.008911,146.011932 173.000000,146.000000 172.799988,146.128113 
	C172.342255,146.456909 172.141251,146.703766 171.996994,146.996826 
	C171.996994,146.996826 172.000000,147.000000 171.804611,147.079651 
	C171.363907,147.304352 171.158829,147.493118 170.993988,147.725632 
	C170.543320,148.086411 170.092636,148.447205 169.126678,148.967026 
	C167.720764,150.668167 166.830154,152.210251 165.627899,153.924225 
	C163.785065,154.986481 162.238892,155.854965 160.782532,156.854355 
	C160.729172,156.890961 161.555634,158.209702 161.962860,159.153244 
	C161.953629,159.375549 161.964142,159.820389 161.964142,159.820389 
	C157.356689,162.328476 152.749252,164.836563 147.678741,167.539520 
	C146.789551,166.801712 146.363419,165.869019 145.953827,164.962326 
	C145.970367,164.988342 145.908737,164.986649 146.128693,164.781677 
	C146.560059,164.024277 146.771469,163.471863 147.009933,162.695984 
	C147.036987,162.472534 147.188889,162.048752 147.355621,161.888763 
	C147.735336,161.499405 147.891510,161.236328 148.039825,160.721558 
	C148.088776,160.503586 148.248230,160.086197 148.568817,160.005035 
	C149.945465,159.614838 151.001556,159.305786 152.057632,158.996735 
	C154.669083,156.216644 157.280533,153.436539 160.221359,150.055313 
	C160.698593,148.613937 160.846436,147.773712 160.994293,146.933472 
	C160.994293,146.933472 161.074631,146.489075 161.484070,146.242401 
	C162.955887,145.641998 164.018280,145.288269 165.400726,144.961365 
	C166.195877,144.654678 166.670959,144.321198 167.308044,143.826569 
	C167.682281,143.441116 167.847656,143.186356 167.967667,142.936508 
	C167.969177,142.971863 167.910904,142.931671 168.307678,142.953522 
	C171.745667,143.298721 173.595047,142.074219 173.970825,138.957916 
	C173.978348,138.989670 173.914688,138.975311 174.129654,138.855804 
	C174.616638,138.540909 174.826660,138.292999 174.982071,137.990387 
	C174.989456,137.988220 174.992630,137.972992 175.198837,137.880859 
	C175.661758,137.623611 175.882965,137.419922 176.263977,137.105591 
	C176.459244,137.033478 176.871445,136.974930 176.871445,136.974930 
z"/>
<path fill="#775AD8" opacity="1.000000" stroke="none" 
	d="
M165.080658,144.934540 
	C164.018280,145.288269 162.955887,145.641998 161.556961,146.028687 
	C163.045807,136.804688 170.168228,131.869293 177.161880,127.036621 
	C185.704605,121.133545 194.534500,115.646065 203.613434,110.207535 
	C203.991486,110.624382 203.996323,110.812553 203.936951,111.034508 
	C203.872711,111.068283 203.858505,111.228249 203.858505,111.228249 
	C203.858505,111.228249 203.999268,110.998940 204.347473,111.000694 
	C205.159836,111.013329 205.623978,111.024200 205.899750,111.432953 
	C205.814468,112.244629 205.917542,112.658440 206.009171,113.043884 
	C205.997742,113.015511 206.058319,113.024086 205.847946,112.646767 
	C194.173172,119.922211 182.526337,127.322975 171.369232,135.400208 
	C168.484268,137.488800 167.135223,141.698929 165.080658,144.934540 
z"/>
<path fill="#9A8CE5" opacity="1.000000" stroke="none" 
	d="
M225.002563,188.988556 
	C248.262390,188.988602 271.022675,188.988602 293.782928,188.988602 
	C293.784973,189.419952 293.786987,189.851303 293.789001,190.282654 
	C265.293671,190.282654 236.798309,190.282654 208.302948,190.282654 
	C208.275330,189.851273 208.247711,189.419876 208.220093,188.988495 
	C213.647720,188.988495 219.075363,188.988495 225.002563,188.988556 
z"/>
<path fill="#7755D8" opacity="1.000000" stroke="none" 
	d="
M162.407898,159.892990 
	C161.964142,159.820389 161.953629,159.375549 162.179871,158.813507 
	C166.640244,157.839951 170.866333,157.283829 175.110199,157.047775 
	C183.364288,156.588730 191.690079,156.798950 199.864792,155.768753 
	C204.651596,155.165512 209.204102,152.702866 213.992950,150.899673 
	C213.769348,150.146072 213.414795,149.569443 213.056381,148.787216 
	C213.052521,148.581604 213.059540,148.170380 213.059540,148.170380 
	C213.468369,148.117645 213.877213,148.064896 214.860596,148.205872 
	C217.312729,149.284286 219.190308,150.168976 221.067886,151.053665 
	C213.377762,156.067215 205.148041,159.269775 195.768600,159.035202 
	C189.224579,158.871552 182.670639,158.865799 176.126678,159.021896 
	C171.696686,159.127563 167.276337,159.636841 162.407898,159.892990 
z"/>
<path fill="#7C50F0" opacity="1.000000" stroke="none" 
	d="
M111.136444,231.062378 
	C111.622490,229.227234 112.108528,227.392090 112.804260,225.265228 
	C113.013954,224.973511 113.007355,224.994980 113.018265,225.285767 
	C113.294395,226.097717 113.559624,226.618851 113.824844,227.139984 
	C114.204544,226.747498 114.584259,226.354996 114.963974,225.962494 
	C114.642616,222.611160 114.321259,219.259796 114.223938,215.339294 
	C115.002823,214.483063 115.557678,214.195984 116.339767,213.952118 
	C116.566994,213.995346 117.007820,214.135681 117.007820,214.135681 
	C117.335220,216.441666 117.662613,218.747665 117.985931,221.424347 
	C118.037384,222.853806 118.092911,223.912552 118.507812,224.951431 
	C119.409889,225.207077 119.952599,225.482590 120.715561,226.138062 
	C120.935814,226.518036 120.787262,226.981903 120.627457,227.143402 
	C120.266174,227.536179 120.112617,227.795807 119.958588,228.309250 
	C119.910202,228.534729 119.703339,228.946960 119.538162,229.044373 
	C119.172211,229.311111 119.026176,229.518875 118.626266,229.998489 
	C117.857399,232.485001 117.397141,234.738129 116.936874,236.991257 
	C116.936874,236.991257 117.002708,236.990326 116.702492,237.040009 
	C116.556740,237.709061 116.711212,238.328430 116.865685,238.947784 
	C117.198746,239.463898 117.531807,239.980026 117.926300,240.803421 
	C116.368591,243.200272 114.749458,245.289841 112.969193,247.695007 
	C112.384926,248.003372 111.961784,247.996140 111.267212,247.665833 
	C111.060982,246.226089 111.126175,245.109406 111.376190,243.636795 
	C111.418411,239.509521 111.275826,235.738174 111.084167,231.740540 
	C111.035110,231.514252 111.136444,231.062378 111.136444,231.062378 
z"/>
<path fill="#7C5CDA" opacity="1.000000" stroke="none" 
	d="
M133.139877,182.926819 
	C132.217758,184.835678 131.295624,186.744537 130.102264,188.801941 
	C128.075836,176.059448 134.521301,165.409760 139.232025,154.261688 
	C141.737396,148.332672 143.936935,142.274399 146.678802,136.391144 
	C147.425247,137.024689 147.767395,137.541565 148.065674,138.467468 
	C147.705093,140.469467 147.641663,142.168015 147.029022,143.637619 
	C143.898514,151.147003 140.505783,158.548340 137.444244,166.084747 
	C135.253479,171.477615 131.931580,176.642242 133.139877,182.926819 
z"/>
<path fill="#7755D8" opacity="1.000000" stroke="none" 
	d="
M116.112534,213.908905 
	C115.557678,214.195984 115.002823,214.483063 114.167519,214.907593 
	C113.587875,212.522278 112.812302,209.950012 113.068398,207.484940 
	C114.511108,193.598297 115.405571,179.595795 120.638321,166.115265 
	C121.200188,166.790268 121.434830,167.662964 121.840088,169.201294 
	C121.864006,170.833359 121.818108,171.828125 121.555481,172.761932 
	C117.770752,186.218719 116.583466,200.015778 116.112534,213.908905 
z"/>
<path fill="#6C54CF" opacity="1.000000" stroke="none" 
	d="
M236.410309,121.902634 
	C235.763855,121.590591 235.538025,121.384155 235.093994,121.079323 
	C235.773346,120.303497 236.607300,119.149078 237.520126,119.082901 
	C252.895584,117.968323 268.234528,117.742836 283.661102,122.019394 
	C284.008240,122.628975 283.998810,123.043045 283.977234,123.767456 
	C272.350708,123.048553 260.747711,121.845375 249.115784,121.084770 
	C245.066605,120.820000 240.945892,121.649223 236.410309,121.902634 
z"/>
<path fill="#795ADB" opacity="1.000000" stroke="none" 
	d="
M213.060242,148.992828 
	C213.414795,149.569443 213.769348,150.146072 213.532791,150.875397 
	C197.234802,151.254410 181.431961,149.825378 165.939545,153.752335 
	C166.830154,152.210251 167.720764,150.668167 168.855682,149.076385 
	C173.460541,148.816544 177.821091,148.606384 182.945282,148.483948 
	C193.492691,148.712036 203.276459,148.852432 213.060242,148.992828 
z"/>
<path fill="#6C54CF" opacity="1.000000" stroke="none" 
	d="
M393.096985,257.383545 
	C393.443237,255.450211 393.662811,253.909714 394.090790,252.429489 
	C394.196167,252.065216 394.980743,251.897354 395.637634,251.797363 
	C395.887421,265.267914 397.018341,278.670135 393.172516,291.653076 
	C392.500183,291.604828 391.827850,291.556580 391.155518,291.508331 
	C391.581299,287.377869 392.188110,283.256378 392.392639,279.114990 
	C392.743225,272.016083 392.842377,264.904724 393.096985,257.383545 
z"/>
<path fill="#7161CA" opacity="1.000000" stroke="none" 
	d="
M273.149719,390.023102 
	C275.034515,390.898865 277.245972,391.464600 277.794189,392.743408 
	C278.595459,394.612366 279.113373,398.085175 278.118439,398.914429 
	C276.373993,400.368408 273.409607,400.503082 270.910217,400.792480 
	C270.370361,400.854980 269.270660,399.311523 269.063690,398.368469 
	C268.586151,396.192413 268.498169,393.930878 268.230225,391.505066 
	C269.700226,391.024078 271.216492,390.527954 273.149719,390.023102 
z"/>
<path fill="#7161CA" opacity="1.000000" stroke="none" 
	d="
M245.444839,398.050903 
	C246.295975,396.203857 246.900040,394.615784 247.504089,393.027740 
	C248.055573,393.235107 248.607056,393.442474 249.158539,393.649872 
	C247.835449,397.083282 246.512360,400.516724 244.661545,405.319641 
	C242.986923,401.688965 241.992340,399.532654 240.867859,397.094696 
	C239.707794,399.326355 238.728760,401.209778 237.749725,403.093201 
	C237.253632,403.173950 236.757553,403.254730 236.261459,403.335510 
	C234.920471,400.058441 233.579483,396.781342 232.238480,393.504242 
	C232.765793,393.254181 233.293106,393.004150 233.820404,392.754089 
	C234.816101,394.790710 235.811813,396.827362 237.116089,399.495148 
	C238.124252,397.008789 238.927322,395.028229 240.397797,391.401672 
	C241.760757,394.390106 242.452179,396.139038 243.372147,397.758118 
	C243.599686,398.158539 244.569290,398.137268 245.444839,398.050903 
z"/>
<path fill="#7F57E7" opacity="1.000000" stroke="none" 
	d="
M204.001175,111.000732 
	C203.996323,110.812553 203.991486,110.624382 203.973724,110.154037 
	C207.301117,105.689857 210.641434,101.507835 214.839920,96.251404 
	C215.072556,103.708939 212.163757,109.031731 208.985123,114.650879 
	C208.107574,114.731468 207.397522,114.487259 206.374985,113.873451 
	C206.062500,113.503845 206.058319,113.024086 206.058319,113.024086 
	C206.058319,113.024086 205.997742,113.015511 206.304886,112.954163 
	C207.026321,112.436073 207.440598,111.979324 208.064850,111.291107 
	C207.250656,111.185654 206.669388,111.110367 206.088120,111.035080 
	C205.623978,111.024200 205.159836,111.013329 204.347839,111.001221 
	C204.000000,111.000000 204.001175,111.000732 204.001175,111.000732 
z"/>
<path fill="#786ACC" opacity="1.000000" stroke="none" 
	d="
M389.191925,304.392090 
	C390.641937,306.256714 390.608978,306.246460 388.696625,307.001343 
	C387.032166,307.658417 385.421997,308.453064 383.140411,309.477661 
	C384.958496,310.891876 385.917755,311.638092 386.735382,312.274078 
	C386.735382,312.722260 386.735382,312.885406 386.735382,313.048523 
	C383.586487,312.058838 380.437622,311.069153 377.302765,310.083862 
	C377.914612,308.189178 378.181061,306.913544 378.722382,305.767761 
	C380.776550,301.419861 382.389191,301.192017 386.201508,304.338928 
	C386.781342,304.817535 387.982483,304.543365 389.191925,304.392090 
z"/>
<path fill="#795ADB" opacity="1.000000" stroke="none" 
	d="
M152.019165,158.578796 
	C151.001556,159.305786 149.945465,159.614838 148.494110,159.608826 
	C151.113754,151.012100 151.953644,142.567719 150.020660,133.959412 
	C150.043457,134.004684 149.959549,134.061600 149.959549,134.061600 
	C153.872986,134.224564 154.071930,137.277328 153.900558,139.878784 
	C153.498062,145.988449 152.649017,152.068710 152.019165,158.578796 
z"/>
<path fill="#7F57E7" opacity="1.000000" stroke="none" 
	d="
M148.109543,138.058441 
	C147.767395,137.541565 147.425247,137.024689 147.005478,136.203369 
	C147.443161,129.636459 147.958481,123.373993 148.473801,117.111519 
	C149.112091,117.157448 149.750381,117.203369 150.388657,117.249298 
	C152.311310,122.587761 153.362473,127.947899 150.047638,133.737991 
	C149.959549,134.061600 150.043457,134.004684 149.697174,134.111847 
	C148.937119,135.498810 148.523331,136.778625 148.109543,138.058441 
z"/>
<path fill="#685BBE" opacity="1.000000" stroke="none" 
	d="
M274.011292,332.841553 
	C261.400482,332.841553 248.789673,332.841553 236.178864,332.841553 
	C236.177567,332.232697 236.176270,331.623840 236.174973,331.014984 
	C248.477432,331.014984 260.779877,331.014984 273.544495,331.367310 
	C274.008179,332.093597 274.009735,332.467560 274.011292,332.841553 
z"/>
<path fill="#786ACC" opacity="1.000000" stroke="none" 
	d="
M364.717102,330.683044 
	C366.264587,329.128357 367.602234,327.881409 368.579468,326.970398 
	C376.403595,330.247772 366.755035,335.758484 371.799255,339.153168 
	C363.281311,336.153015 362.297668,334.918884 364.717102,330.683044 
z"/>
<path fill="#786ACC" opacity="1.000000" stroke="none" 
	d="
M363.849915,342.390076 
	C366.231781,346.688660 364.669403,349.834808 361.201752,351.734650 
	C358.048218,353.462280 353.479431,351.534729 353.369507,348.436432 
	C353.288879,346.164581 354.574066,343.365295 356.158264,341.629425 
	C358.354675,339.222748 361.215729,340.003845 363.849915,342.390076 
M362.895325,346.349792 
	C361.646912,345.076202 360.398529,343.802643 359.150116,342.529053 
	C357.848145,343.862823 356.215088,345.030487 355.418579,346.617889 
	C355.128296,347.196411 357.147644,349.836395 357.566467,349.710876 
	C359.317780,349.186127 360.861328,347.968170 362.895325,346.349792 
z"/>
<path fill="#685BBE" opacity="1.000000" stroke="none" 
	d="
M311.293213,379.299622 
	C310.334595,380.037476 309.676514,380.579987 309.018402,381.122498 
	C309.138733,381.362335 309.259064,381.602203 309.379425,381.842072 
	C311.360687,381.231537 313.341949,380.620972 315.323212,380.010437 
	C315.487793,380.302826 315.652344,380.595215 315.816925,380.887604 
	C314.154388,382.232147 312.491852,383.576691 310.829315,384.921234 
	C310.998474,385.228577 311.167633,385.535889 311.336823,385.843231 
	C313.407684,385.215698 315.478577,384.588135 317.549469,383.960571 
	C317.727783,384.406616 317.906097,384.852631 318.084381,385.298676 
	C315.739838,386.537689 313.395294,387.776703 310.722870,389.188965 
	C309.064209,385.946136 307.527100,382.940948 305.853516,379.668884 
	C308.445679,378.377838 310.830780,377.189941 313.215912,376.002045 
	C313.485718,376.365753 313.755554,376.729462 314.025360,377.093140 
	C313.214844,377.763550 312.404297,378.433929 311.293213,379.299622 
z"/>
<path fill="#7161CA" opacity="1.000000" stroke="none" 
	d="
M292.957458,385.063934 
	C299.965393,382.316162 301.872498,382.878784 303.238159,387.545074 
	C304.670624,392.439667 300.639709,393.208130 297.862396,394.619507 
	C294.630646,396.261780 293.917053,393.072571 293.206329,391.188843 
	C292.519318,389.367950 292.750122,387.200775 292.957458,385.063934 
M299.131165,385.526337 
	C297.457214,385.731598 295.783295,385.936859 293.762543,386.184631 
	C294.759277,388.700592 295.559265,390.720032 296.325592,392.654358 
	C299.729156,391.311798 303.146332,390.183380 299.131165,385.526337 
z"/>
<path fill="#7161CA" opacity="1.000000" stroke="none" 
	d="
M343.235718,369.156250 
	C341.374969,370.550476 339.791870,371.702179 337.687927,373.232758 
	C335.579254,370.733612 333.413971,368.167358 330.913727,365.204102 
	C333.292908,363.309204 335.630127,361.447693 337.967346,359.586212 
	C338.722961,360.410858 339.478607,361.235504 340.234222,362.060150 
	C338.085266,363.137482 335.936279,364.214813 333.787323,365.292175 
	C334.187317,365.741638 334.587280,366.191101 334.987274,366.640594 
	C336.721497,365.676727 338.455750,364.712860 340.189972,363.748993 
	C340.350067,363.993225 340.510132,364.237488 340.670197,364.481720 
	C339.387970,366.034729 338.105713,367.587738 336.823456,369.140717 
	C337.124695,369.471649 337.425934,369.802582 337.727173,370.133484 
	C338.724457,369.345001 339.621857,368.231354 340.754486,367.883453 
	C341.498413,367.654877 342.581940,368.531830 343.235718,369.156250 
z"/>
<path fill="#7161CA" opacity="1.000000" stroke="none" 
	d="
M260.511658,398.822327 
	C259.137207,399.183807 258.127930,399.388550 257.118652,399.593323 
	C257.113373,399.889374 257.108124,400.185455 257.102875,400.481506 
	C258.101685,400.657562 259.095337,400.876617 260.100708,400.998322 
	C261.229218,401.134918 262.368378,401.183624 263.502899,401.270569 
	C263.528290,401.717194 263.553650,402.163849 263.579041,402.610474 
	C260.882538,402.786682 258.186035,402.962891 255.502411,403.138275 
	C253.988785,391.890472 254.651657,390.987640 262.812378,393.375397 
	C261.705353,393.583862 260.567749,393.694336 259.499817,394.027954 
	C258.402557,394.370728 257.373352,394.931366 256.554871,396.297424 
	C258.620728,396.297424 260.686554,396.297424 264.012909,396.297424 
	C262.285217,397.602081 261.581055,398.133850 260.511658,398.822327 
z"/>
<path fill="#7161CA" opacity="1.000000" stroke="none" 
	d="
M372.783356,317.692474 
	C373.629547,317.182068 374.276123,316.980286 374.922699,316.778503 
	C374.693085,318.004181 374.463440,319.229828 374.233826,320.455505 
	C374.641205,320.860718 375.048615,321.265961 375.455994,321.671173 
	C376.159149,319.596710 376.862335,317.522217 377.565491,315.447754 
	C378.289703,316.065887 379.013947,316.684021 379.738159,317.302185 
	C379.089478,319.266418 378.440796,321.230682 377.792114,323.194916 
	C378.071411,323.362579 378.350708,323.530273 378.630005,323.697937 
	C380.014587,322.116272 381.399170,320.534637 382.783752,318.952972 
	C383.166748,319.180634 383.549744,319.408295 383.932770,319.635925 
	C382.708374,321.944183 381.484009,324.252411 380.275848,326.530121 
	C371.140228,323.347900 370.546539,322.668732 372.783356,317.692474 
z"/>
<path fill="#7161CA" opacity="1.000000" stroke="none" 
	d="
M274.475525,332.904388 
	C274.009735,332.467560 274.008179,332.093597 274.008972,331.439117 
	C281.897552,331.158630 289.783813,331.158630 297.670044,331.158630 
	C297.682220,331.761505 297.694366,332.364349 297.706543,332.967224 
	C290.117615,332.967224 282.528656,332.967224 274.475525,332.904388 
z"/>
<path fill="#685BBE" opacity="1.000000" stroke="none" 
	d="
M326.119690,374.894073 
	C326.119690,372.728302 326.119690,370.562531 326.119690,368.396790 
	C326.610657,368.387573 327.101593,368.378387 327.592560,368.369171 
	C328.087280,371.935547 328.582001,375.501923 329.076721,379.068298 
	C328.632172,379.334839 328.187622,379.601410 327.743073,379.867950 
	C324.652161,377.909943 321.561279,375.951935 318.470367,373.993896 
	C318.688141,373.565460 318.905945,373.136993 319.123749,372.708527 
	C321.009338,373.563599 322.894928,374.418671 325.229309,375.703186 
	C326.040802,376.227112 326.403564,376.321594 326.766296,376.416077 
	C326.550781,375.908722 326.335236,375.401398 326.119690,374.894073 
z"/>
<path fill="#795ADB" opacity="1.000000" stroke="none" 
	d="
M145.937286,164.936310 
	C146.363419,165.869019 146.789551,166.801712 147.515564,167.850189 
	C145.588776,171.101334 143.362076,174.236740 140.991577,177.687469 
	C140.847794,178.002808 140.441544,177.999176 140.238846,177.997818 
	C139.507996,177.691299 138.979828,177.386139 138.308182,176.699402 
	C140.755554,172.523987 143.346420,168.730148 145.937286,164.936310 
z"/>
<path fill="#795ADB" opacity="1.000000" stroke="none" 
	d="
M221.375732,150.917725 
	C219.190308,150.168976 217.312729,149.284286 215.169403,148.177536 
	C218.243118,146.699997 221.582596,145.444519 224.922058,144.189041 
	C225.282608,144.561050 225.643158,144.933044 226.003693,145.305054 
	C224.563660,147.130630 223.123611,148.956192 221.375732,150.917725 
z"/>
<path fill="#786ACC" opacity="1.000000" stroke="none" 
	d="
M342.495209,356.352295 
	C344.915161,357.417664 347.207581,358.777466 349.887817,360.367371 
	C350.646606,359.838196 351.958801,358.923035 353.270996,358.007874 
	C353.604675,358.354584 353.938354,358.701324 354.272034,359.048035 
	C352.797974,360.596161 351.323914,362.144287 349.859985,363.681793 
	C347.309265,361.286743 344.838470,358.966736 342.495209,356.352295 
z"/>
<path fill="#786ACC" opacity="1.000000" stroke="none" 
	d="
M213.056381,148.787216 
	C203.276459,148.852432 193.492691,148.712036 183.341949,148.379501 
	C192.690048,148.129532 202.405090,148.071716 212.589844,148.092133 
	C213.059540,148.170380 213.052521,148.581604 213.056381,148.787216 
z"/>
<path fill="#786ACC" opacity="1.000000" stroke="none" 
	d="
M214.397949,330.997620 
	C218.541382,330.988037 222.221283,330.988037 225.901184,330.988037 
	C225.906174,331.448730 225.911163,331.909424 225.916168,332.370117 
	C221.064056,332.370117 216.211945,332.370117 211.359833,332.370117 
	C211.298874,332.169739 211.237930,331.969330 211.176987,331.768951 
	C212.096115,331.515015 213.015259,331.261108 214.397949,330.997620 
z"/>
<path fill="#7755D8" opacity="1.000000" stroke="none" 
	d="
M114.685028,225.936905 
	C114.584259,226.354996 114.204544,226.747498 113.824844,227.139984 
	C113.559624,226.618851 113.294395,226.097717 113.028442,225.283737 
	C113.487183,225.297714 113.946632,225.604507 114.685028,225.936905 
z"/>
<path fill="#775AD8" opacity="1.000000" stroke="none" 
	d="
M160.677094,147.090378 
	C160.846436,147.773712 160.698593,148.613937 160.374939,149.725006 
	C160.252731,149.079651 160.306305,148.163467 160.677094,147.090378 
z"/>
<path fill="#6C54CF" opacity="1.000000" stroke="none" 
	d="
M286.951172,122.681419 
	C286.708221,122.801598 286.381836,122.689484 286.026672,122.404663 
	C286.354370,122.037804 286.644287,122.110191 286.951172,122.681419 
z"/>
<path fill="#795ADB" opacity="1.000000" stroke="none" 
	d="
M176.279938,143.999146 
	C176.237106,143.817337 176.453903,143.555756 176.889008,143.160126 
	C176.918076,143.323837 176.728821,143.621597 176.279938,143.999146 
z"/>
<path fill="#795ADB" opacity="1.000000" stroke="none" 
	d="
M175.225372,144.848755 
	C175.160507,144.570312 175.393600,144.374313 175.867416,144.122894 
	C175.882248,144.318573 175.687332,144.606476 175.225372,144.848755 
z"/>
<path fill="#795ADB" opacity="1.000000" stroke="none" 
	d="
M173.261856,145.941925 
	C173.157593,145.710342 173.365829,145.457901 173.847748,145.130707 
	C173.879517,145.295197 173.697159,145.583557 173.261856,145.941925 
z"/>
<path fill="#795ADB" opacity="1.000000" stroke="none" 
	d="
M172.249817,146.935944 
	C172.141251,146.703766 172.342255,146.456909 172.806030,146.132538 
	C172.842255,146.297577 172.672440,146.586304 172.249817,146.935944 
z"/>
<path fill="#795ADB" opacity="1.000000" stroke="none" 
	d="
M171.238113,147.760391 
	C171.158829,147.493118 171.363907,147.304352 171.803040,147.078125 
	C171.973373,147.358459 171.801834,147.624527 171.238113,147.760391 
z"/>
<path fill="#7C5CDA" opacity="1.000000" stroke="none" 
	d="
M105.130112,246.291565 
	C105.378357,246.237961 105.572723,246.476715 105.836380,246.951569 
	C105.667023,246.955627 105.390549,246.754379 105.130112,246.291565 
z"/>
<path fill="#000000" opacity="1.000000" stroke="none" 
	d="
M111.063477,230.618744 
	C111.136444,231.062378 111.035110,231.514252 111.009598,232.199677 
	C111.053185,236.587646 111.122276,240.290192 111.191368,243.992722 
	C111.126175,245.109406 111.060982,246.226089 110.949821,247.663086 
	C110.297417,248.160141 109.690971,248.336884 108.969894,248.265625 
	C106.387383,240.365097 103.716103,232.769745 101.542015,225.034622 
	C100.535233,221.452652 100.350395,217.609940 100.055359,213.864746 
	C99.635658,208.537216 99.457733,203.190659 99.140846,197.175018 
	C107.099358,207.238846 110.857506,218.055756 111.063477,230.618744 
z"/>
<path fill="#000000" opacity="1.000000" stroke="none" 
	d="
M119.703339,228.946960 
	C119.703339,228.946960 119.910202,228.534729 120.212662,228.223373 
	C120.605835,227.601974 120.696548,227.291946 120.787262,226.981903 
	C120.787262,226.981903 120.935814,226.518036 120.985001,226.279877 
	C128.959641,217.269272 136.885086,208.496826 145.254364,199.700989 
	C145.822891,199.805206 145.947617,199.932831 146.072327,200.060440 
	C145.263763,208.794296 140.378464,215.543564 134.731888,221.584122 
	C129.360352,227.330460 123.200783,232.340164 117.162285,237.332504 
	C117.397141,234.738129 117.857399,232.485001 118.867661,230.000031 
	C119.766579,229.582535 119.861809,229.308792 119.703339,228.946960 
z"/>
<path fill="#000000" opacity="1.000000" stroke="none" 
	d="
M117.062164,238.556976 
	C116.711212,238.328430 116.556740,237.709061 116.696411,237.007660 
	C117.079910,237.339127 117.169273,237.752640 117.062164,238.556976 
z"/>
<path fill="#000000" opacity="1.000000" stroke="none" 
	d="
M145.516266,199.481247 
	C145.812500,199.033615 146.290649,198.782303 146.768814,198.530991 
	C146.715103,198.970184 146.661392,199.409393 146.339996,199.954514 
	C145.947617,199.932831 145.822891,199.805206 145.516266,199.481247 
z"/>
<path fill="#000000" opacity="1.000000" stroke="none" 
	d="
M145.953827,164.962326 
	C143.346420,168.730148 140.755554,172.523987 138.006836,176.631760 
	C136.486435,178.861633 135.123901,180.777588 133.450623,182.810181 
	C131.931580,176.642242 135.253479,171.477615 137.444244,166.084747 
	C140.505783,158.548340 143.898514,151.147003 147.029022,143.637619 
	C147.641663,142.168015 147.705093,140.469467 148.065674,138.467468 
	C148.523331,136.778625 148.937119,135.498810 149.674377,134.066559 
	C151.953644,142.567719 151.113754,151.012100 148.173523,159.689972 
	C148.248230,160.086197 148.088776,160.503586 147.783539,160.804352 
	C147.381821,161.419662 147.285355,161.734207 147.188873,162.048752 
	C147.188889,162.048752 147.036987,162.472534 146.724457,162.831665 
	C146.244186,163.789413 146.076447,164.388031 145.908722,164.986649 
	C145.908737,164.986649 145.970367,164.988342 145.953827,164.962326 
z"/>
<path fill="#000000" opacity="1.000000" stroke="none" 
	d="
M116.339760,213.952118 
	C116.583466,200.015778 117.770752,186.218719 121.555481,172.761932 
	C121.818108,171.828125 121.864006,170.833359 122.066147,169.458725 
	C122.427376,168.261795 122.733162,167.473099 123.468842,166.591980 
	C123.998978,173.017319 124.099205,179.535095 124.199432,186.052856 
	C122.299911,194.020035 120.396774,201.986374 118.504623,209.955292 
	C118.206108,211.212555 117.957291,212.481628 117.346649,213.940460 
	C117.007820,214.135681 116.566994,213.995346 116.339760,213.952118 
z"/>
<path fill="#000000" opacity="1.000000" stroke="none" 
	d="
M140.034851,184.035370 
	C149.369736,177.375870 158.972794,171.215332 170.703217,168.103226 
	C171.426971,168.412766 171.563782,168.544220 171.700592,168.675690 
	C161.988525,178.786194 149.861588,184.737823 136.354935,189.016785 
	C136.414719,188.095444 136.859207,187.133118 137.909973,186.011780 
	C138.699570,185.576187 138.882889,185.299591 139.066223,185.022995 
	C139.066223,185.022995 139.007019,185.005264 139.269440,184.958008 
	C139.714020,184.614532 139.896164,184.318329 140.078308,184.022125 
	C140.078308,184.022125 140.021378,184.009491 140.034851,184.035370 
z"/>
<path fill="#9A8CE5" opacity="1.000000" stroke="none" 
	d="
M124.375778,185.676147 
	C124.099205,179.535095 123.998978,173.017319 123.550934,166.255554 
	C123.480850,165.446655 123.758560,164.881729 124.552116,163.267532 
	C124.552116,171.370453 124.552116,178.334946 124.375778,185.676147 
z"/>
<path fill="#000000" opacity="1.000000" stroke="none" 
	d="
M135.871979,188.635193 
	C135.610672,189.304337 135.149750,189.628510 134.372864,189.917114 
	C134.595398,189.351105 135.133865,188.820663 135.871979,188.635193 
z"/>
<path fill="#8060DC" opacity="1.000000" stroke="none" 
	d="
M139.871338,184.163544 
	C139.896164,184.318329 139.714020,184.614532 139.274933,184.988403 
	C139.233444,184.812378 139.448898,184.558670 139.871338,184.163544 
z"/>
<path fill="#8060DC" opacity="1.000000" stroke="none" 
	d="
M138.869263,185.123840 
	C138.882889,185.299591 138.699570,185.576187 138.260620,185.827423 
	C138.198914,185.576645 138.421341,185.384171 138.869263,185.123840 
z"/>
<path fill="#000000" opacity="1.000000" stroke="none" 
	d="
M205.847946,112.646767 
	C206.058319,113.024086 206.062500,113.503845 206.127029,113.734558 
	C198.440033,123.916641 187.667023,129.948257 177.020294,136.655853 
	C176.871445,136.974930 176.459244,137.033478 175.995453,137.068542 
	C175.351974,137.393402 175.172302,137.683197 174.992630,137.972992 
	C174.992630,137.972992 174.989456,137.988220 174.727386,138.050964 
	C174.281784,138.400925 174.098236,138.688110 173.914688,138.975311 
	C173.914688,138.975311 173.978348,138.989670 173.621338,138.986023 
	C171.479858,140.298813 169.695374,141.615234 167.910904,142.931671 
	C167.910904,142.931671 167.969177,142.971863 167.709808,143.014511 
	C167.348969,143.367340 167.247513,143.677521 167.146042,143.987701 
	C166.670959,144.321198 166.195877,144.654678 165.400726,144.961349 
	C167.135223,141.698929 168.484268,137.488800 171.369232,135.400208 
	C182.526337,127.322975 194.173172,119.922211 205.847946,112.646767 
z"/>
<path fill="#000000" opacity="1.000000" stroke="none" 
	d="
M194.884338,129.881958 
	C193.975891,130.771317 192.875687,131.456650 191.775482,132.141998 
	C191.598694,131.860397 191.421890,131.578796 191.245102,131.297195 
	C192.081070,130.743484 192.917023,130.189774 194.026703,129.457153 
	C194.431137,129.411484 194.561874,129.544724 194.884338,129.881958 
z"/>
<path fill="#000000" opacity="1.000000" stroke="none" 
	d="
M171.089203,168.079834 
	C171.402115,167.651657 171.915970,167.424957 172.429840,167.198257 
	C172.335220,167.571045 172.240601,167.943817 171.923279,168.496155 
	C171.563782,168.544220 171.426971,168.412766 171.089203,168.079834 
z"/>
<path fill="#000000" opacity="1.000000" stroke="none" 
	d="
M165.627884,153.924225 
	C181.431961,149.825378 197.234802,151.254410 213.401855,151.052383 
	C209.204102,152.702866 204.651596,155.165512 199.864792,155.768753 
	C191.690079,156.798950 183.364288,156.588730 175.110199,157.047775 
	C170.866333,157.283829 166.640244,157.839951 162.189102,158.591187 
	C161.555634,158.209702 160.729172,156.890961 160.782532,156.854355 
	C162.238892,155.854965 163.785065,154.986481 165.627884,153.924225 
z"/>
<path fill="#795ADB" opacity="1.000000" stroke="none" 
	d="
M168.307678,142.953522 
	C169.695374,141.615234 171.479858,140.298813 173.613831,138.954254 
	C173.595047,142.074219 171.745667,143.298721 168.307678,142.953522 
z"/>
<path fill="#795ADB" opacity="1.000000" stroke="none" 
	d="
M146.128693,164.781677 
	C146.076447,164.388031 146.244186,163.789413 146.697388,163.055115 
	C146.771469,163.471863 146.560059,164.024277 146.128693,164.781677 
z"/>
<path fill="#795ADB" opacity="1.000000" stroke="none" 
	d="
M147.355621,161.888763 
	C147.285355,161.734207 147.381821,161.419662 147.734589,161.022339 
	C147.891510,161.236328 147.735336,161.499405 147.355621,161.888763 
z"/>
<path fill="#795ADB" opacity="1.000000" stroke="none" 
	d="
M175.198837,137.880859 
	C175.172302,137.683197 175.351974,137.393402 175.800171,137.140640 
	C175.882965,137.419922 175.661758,137.623611 175.198837,137.880859 
z"/>
<path fill="#795ADB" opacity="1.000000" stroke="none" 
	d="
M174.129654,138.855804 
	C174.098236,138.688110 174.281784,138.400925 174.720001,138.053131 
	C174.826660,138.292999 174.616638,138.540909 174.129654,138.855804 
z"/>
<path fill="#795ADB" opacity="1.000000" stroke="none" 
	d="
M167.308044,143.826569 
	C167.247513,143.677521 167.348969,143.367340 167.708282,142.979156 
	C167.847656,143.186356 167.682281,143.441116 167.308044,143.826569 
z"/>
<path fill="#000000" opacity="1.000000" stroke="none" 
	d="
M205.899750,111.432953 
	C206.669388,111.110367 207.250656,111.185654 208.064850,111.291107 
	C207.440598,111.979324 207.026321,112.436073 206.316315,112.982529 
	C205.917542,112.658440 205.814468,112.244629 205.899750,111.432953 
z"/>
<path fill="#7F57E7" opacity="1.000000" stroke="none" 
	d="
M203.999634,110.999466 
	C203.999268,110.998940 203.858505,111.228249 203.858505,111.228249 
	C203.858505,111.228249 203.872711,111.068283 203.936951,111.034508 
	C204.001175,111.000732 204.000000,111.000000 203.999634,110.999466 
z"/>
<path fill="#7755D8" opacity="1.000000" stroke="none" 
	d="
M111.376190,243.636795 
	C111.122276,240.290192 111.053185,236.587646 111.058662,232.425964 
	C111.275826,235.738174 111.418411,239.509521 111.376190,243.636795 
z"/>
<path fill="#8060DC" opacity="1.000000" stroke="none" 
	d="
M120.627457,227.143402 
	C120.696548,227.291946 120.605835,227.601974 120.261047,227.997894 
	C120.112617,227.795807 120.266174,227.536179 120.627457,227.143402 
z"/>
<path fill="#8060DC" opacity="1.000000" stroke="none" 
	d="
M119.538162,229.044373 
	C119.861809,229.308792 119.766579,229.582535 119.176262,229.766647 
	C119.026176,229.518875 119.172211,229.311111 119.538162,229.044373 
z"/>
<path fill="#000000" opacity="1.000000" stroke="none" 
	d="
M362.688171,346.677032 
	C360.861328,347.968170 359.317780,349.186127 357.566467,349.710876 
	C357.147644,349.836395 355.128296,347.196411 355.418579,346.617889 
	C356.215088,345.030487 357.848145,343.862823 359.150116,342.529053 
	C360.398529,343.802643 361.646912,345.076202 362.688171,346.677032 
z"/>
<path fill="#000000" opacity="1.000000" stroke="none" 
	d="
M299.484344,385.709229 
	C303.146332,390.183380 299.729156,391.311798 296.325592,392.654358 
	C295.559265,390.720032 294.759277,388.700592 293.762543,386.184631 
	C295.783295,385.936859 297.457214,385.731598 299.484344,385.709229 
z"/>
<path fill="#000000" opacity="1.000000" stroke="none" 
	d="
M325.918365,375.093201 
	C326.335236,375.401398 326.550781,375.908722 326.766296,376.416077 
	C326.403564,376.321594 326.040802,376.227112 325.502625,375.917847 
	C325.457123,375.566101 325.587067,375.429199 325.918365,375.093201 
z"/>
</svg>